Coordinates
version=1
nRows=13
nColumns=40
inDegrees=yes

Units are S.I. units (second, meters, Newtons, ...)
If the header above contains a line with 'inDegrees', this indicates whether rotational values are in degrees (yes) or radians (no).

endheader
time	pelvis_tilt	pelvis_list	pelvis_rotation	pelvis_tx	pelvis_ty	pelvis_tz	hip_flexion_r	hip_adduction_r	hip_rotation_r	knee_angle_r	knee_angle_r_beta	ankle_angle_r	subtalar_angle_r	mtp_angle_r	hip_flexion_l	hip_adduction_l	hip_rotation_l	knee_angle_l	knee_angle_l_beta	ankle_angle_l	subtalar_angle_l	mtp_angle_l	lumbar_extension	lumbar_bending	lumbar_rotation	arm_flex_r	arm_add_r	arm_rot_r	elbow_flex_r	pro_sup_r	wrist_flex_r	wrist_dev_r	arm_flex_l	arm_add_l	arm_rot_l	elbow_flex_l	pro_sup_l	wrist_flex_l	wrist_dev_l
     11.66700000	    -25.41581145	     -1.43768543	      8.39189948	      0.07243668	      1.27295549	     -0.01044539	     82.73988809	     -9.35952948	      2.85056013	     65.31056405	      1.13988438	    -15.50829026	    -23.07185887	      0.00000000	     74.18171120	      1.26068299	      7.31334826	     91.07431159	      1.58954660	    -22.87406908	    -23.63735888	      0.00000000	    -23.34578688	     -4.94190587	     -0.37075515	     64.08347276	     15.14510254	    -68.21001653	     31.37591805	     83.08957788	      0.00000000	      0.00000000	     57.90135809	     19.87002188	    -39.48538496	     34.04287040	      2.26103841	      0.00000000	      0.00000000
     11.68300000	    -25.62087014	     -1.50657516	      8.86156619	      0.07203562	      1.27268711	     -0.01129029	     80.11572237	     -9.90585633	      1.84662314	     61.59043741	      1.07495592	    -16.58820506	    -22.84179207	      0.00000000	     76.54066122	      1.94937135	      7.81680768	     94.05830443	      1.64162710	    -22.56437667	    -23.38951796	      0.00000000	    -23.15648659	     -5.01026341	     -0.75818704	     63.95216154	     15.01854867	    -68.28875183	     31.30611078	     82.97342943	      0.00000000	      0.00000000	     57.88693601	     19.89823477	    -39.30481468	     33.87725035	      2.40803048	      0.00000000	      0.00000000
     11.70000000	    -25.77989777	     -2.03858144	      9.07683097	      0.07163886	      1.27232120	     -0.01161781	     77.33712349	     -9.91795965	      0.37278485	     57.91815218	      1.01086245	    -17.60058871	    -23.56499222	      0.00000000	     79.04174430	      2.25462279	      8.76081943	     96.91033537	      1.69140443	    -22.22719565	    -22.70850102	      0.00000000	    -22.88327405	     -4.68103195	     -0.67920162	     63.83212903	     14.83892264	    -68.44616785	     31.29477916	     83.16086949	      0.00000000	      0.00000000	     57.81995114	     19.95187566	    -38.93702388	     33.75119212	      2.19923616	      0.00000000	      0.00000000
     11.71700000	    -26.01047602	     -2.04657017	      9.49726787	      0.07114358	      1.27207143	     -0.01234780	     74.73370769	    -10.33654863	     -0.49447411	     54.52987133	      0.95172580	    -18.59085426	    -23.10721042	      0.00000000	     81.52863877	      3.04787122	      9.08266933	     99.42683872	      1.73532570	    -21.94747178	    -22.71583514	      0.00000000	    -22.64180933	     -4.82660330	     -1.05069053	     63.65094759	     14.69887983	    -68.52174294	     31.23098438	     83.13154496	      0.00000000	      0.00000000	     57.75950023	     19.98075630	    -38.77361450	     33.62095748	      2.28572131	      0.00000000	      0.00000000
     11.73300000	    -26.21546351	     -2.24595079	      9.86045435	      0.07061644	      1.27178236	     -0.01294535	     72.05454093	    -10.55664745	     -1.52267311	     51.25302749	      0.89453408	    -19.49941096	    -22.84275034	      0.00000000	     84.10139479	      3.77794347	      9.54681748	    101.75121229	      1.77589367	    -21.69762738	    -22.80386619	      0.00000000	    -22.37283768	     -4.77330798	     -1.27494443	     63.47414572	     14.54847605	    -68.56854209	     31.17635541	     83.14032360	      0.00000000	      0.00000000	     57.67689018	     20.03452633	    -38.58145094	     33.49290925	      2.28396205	      0.00000000	      0.00000000
     11.75000000	    -26.36275584	     -2.50649461	     10.16693596	      0.07019131	      1.27153789	     -0.01339042	     69.42257679	    -10.65018798	     -2.59683888	     48.27562602	      0.84256862	    -20.30782191	    -22.77633435	      0.00000000	     86.62241595	      4.44052992	      9.97817378	    103.73865331	      1.81058106	    -21.52591527	    -22.87464517	      0.00000000	    -22.13674480	     -4.68218651	     -1.40698067	     63.30811008	     14.33877303	    -68.59850883	     31.06738057	     83.20445841	      0.00000000	      0.00000000	     57.57404294	     20.09310212	    -38.30417180	     33.41281618	      2.25678504	      0.00000000	      0.00000000
     11.76700000	    -26.53898501	     -2.62343391	     10.44972361	      0.06976690	      1.27131552	     -0.01375729	     66.96838011	    -10.73751352	     -3.31251388	     45.63456661	      0.79647344	    -20.98928748	    -22.49168520	      0.00000000	     89.11058025	      5.12464247	     10.13381577	    105.34255107	      1.83857436	    -21.29860396	    -23.06866879	      0.00000000	    -21.90080562	     -4.76535819	     -1.59765180	     63.14660850	     14.15539097	    -68.60988243	     30.96493216	     83.13041679	      0.00000000	      0.00000000	     57.48938481	     20.11513520	    -38.10444573	     33.31524497	      2.31538540	      0.00000000	      0.00000000
     11.78300000	    -26.73647531	     -2.45225624	     10.66608689	      0.06946072	      1.27115475	     -0.01384851	     64.67959170	    -10.85623299	     -3.61060793	     43.48681125	      0.75898804	    -20.92048087	    -22.41380425	      0.00000000	     91.53038296	      5.77737564	      9.92402013	    106.53313462	      1.85935396	    -21.12500090	    -23.10614181	      0.00000000	    -21.71546311	     -5.22497502	     -1.75180632	     62.94161691	     13.93812033	    -68.63086074	     30.90891311	     82.94622766	      0.00000000	      0.00000000	     57.42881995	     20.27129112	    -37.98337588	     33.24308753	      2.56816278	      0.00000000	      0.00000000
     11.80000000	    -26.78904567	     -3.02188245	     10.95294957	      0.06910686	      1.27097440	     -0.01438073	     62.46115275	    -10.80512065	     -4.87064338	     41.56412443	      0.72543082	    -21.93303013	    -21.96142422	      0.00000000	     93.85240233	      6.45014011	     10.38292433	    107.48066699	      1.87589152	    -20.86662850	    -23.59446413	      0.00000000	    -21.51767743	     -4.76300807	     -1.79974672	     62.87746867	     13.71042529	    -68.66649962	     30.71598596	     82.93779830	      0.00000000	      0.00000000	     57.32430695	     20.30854630	    -37.63207092	     33.20584970	      2.34048719	      0.00000000	      0.00000000
     11.81700000	    -26.84870496	     -3.27376143	     11.15517778	      0.06905939	      1.27078443	     -0.01461709	     60.61792233	    -10.81996216	     -5.71593551	     40.40553137	      0.70520956	    -22.22457093	    -21.88234655	      0.00000000	     95.95073724	      7.06991512	     10.53723161	    108.01178077	      1.88516121	    -20.49274988	    -23.69223159	      0.00000000	    -21.37535054	     -4.70419599	     -1.82157453	     62.76772037	     13.47156780	    -68.76986951	     30.60478152	     82.93591885	      0.00000000	      0.00000000	     57.26118164	     20.41274814	    -37.35335913	     33.13615592	      2.28486157	      0.00000000	      0.00000000
     11.83300000	    -26.94234827	     -3.52690698	     11.30188976	      0.06895606	      1.27053475	     -0.01487034	     59.11924561	    -10.86159959	     -6.54574650	     39.82123989	      0.69501175	    -22.37573616	    -21.78696169	      0.00000000	     97.94382360	      7.63675962	     10.65678394	    108.17393762	      1.88799138	    -19.96526977	    -23.63339140	      0.00000000	    -21.21773028	     -4.63770892	     -1.80531034	     62.72017505	     13.25242864	    -68.87180776	     30.49203839	     82.80788468	      0.00000000	      0.00000000	     57.23125030	     20.54749775	    -37.14981112	     33.06168357	      2.24071808	      0.00000000	      0.00000000
     11.85000000	    -26.99643802	     -3.70950746	     11.44791121	      0.06907298	      1.27033922	     -0.01507223	     57.96463760	    -10.95280148	     -7.23477800	     39.93727091	      0.69703687	    -22.35084144	    -21.94685471	      0.00000000	     99.62361029	      8.15047045	     10.69343626	    107.93373588	      1.88379907	    -19.44049844	    -23.36666636	      0.00000000	    -21.12542673	     -4.60681001	     -1.79986202	     62.70459153	     13.11771592	    -69.21282609	     30.53532590	     83.34968049	      0.00000000	      0.00000000	     57.17078230	     20.57676413	    -36.58938159	     33.01525256	      2.04456423	      0.00000000	      0.00000000
     11.86700000	    -27.04986005	     -3.83251971	     11.43623124	      0.06925931	      1.27006586	     -0.01508261	     57.24663325	    -10.99483641	     -7.66317744	     40.75042819	      0.71122914	    -22.16493706	    -21.94280465	      0.00000000	    101.04076249	      8.42899613	     10.63393498	    107.36572680	      1.87388544	    -18.87380438	    -23.30113804	      0.00000000	    -21.07105286	     -4.65730636	     -1.71026914	     62.70926773	     12.90757795	    -69.16074612	     30.49113851	     83.99855889	      0.00000000	      0.00000000	     57.23786829	     20.78216187	    -36.78768177	     33.03878566	      2.09417917	      0.00000000	      0.00000000
